<?xml version="1.0" encoding="UTF-8"?>
<!-- Uploaded to: SVG Repo, www.svgrepo.com, Generator: SVG Repo Mixer Tools -->
<svg width="800px" height="800px" viewBox="0 -0.5 34 34" version="1.1" xmlns="http://www.w3.org/2000/svg" xmlns:xlink="http://www.w3.org/1999/xlink">
    
    <title>casino-chips</title>
    <desc>Created with Sketch.</desc>
    <g id="icons" stroke="none" stroke-width="1" fill="none" fill-rule="evenodd">
        <g id="ui-gambling-website-lined-icnos-casinoshunter" transform="translate(-1643.000000, -543.000000)" fill="#1C1C1F" fill-rule="nonzero">
            <g id="1" transform="translate(1350.000000, 120.000000)">
                <path d="M298.844503,450.750231 L298.875836,450.712236 C299.761863,451.488318 300.868675,452.018522 302.089764,452.196339 L302.373534,452.23107 L302.373704,455.999967 C300.123825,455.861203 298.074856,454.979925 296.46883,453.598168 L296.218963,453.375872 L298.844503,450.750231 L298.875836,450.712236 Z M307.296252,450.555793 L309.856748,453.116129 C309.890212,453.149593 309.926522,453.178478 309.966138,453.201245 C308.38238,454.733613 306.294603,455.748241 303.975604,455.972332 L303.626054,455.999982 L303.626466,452.23107 C305.041244,452.090542 306.317488,451.479135 307.296252,450.555793 Z M296.737985,446.626201 L296.768732,446.624468 C296.876786,447.715848 297.265043,448.724849 297.860559,449.578526 L298.028056,449.807441 L297.95892,449.864648 L295.351634,452.472369 C294.07386,450.963942 293.234302,449.072508 293.029526,446.994633 L293.000018,446.626054 L296.737985,446.626201 L296.768732,446.624468 Z M309.231268,446.624468 L309.262015,446.626201 L312.999982,446.626054 C312.875754,448.641043 312.155957,450.494893 311.014457,452.013738 L310.795526,452.294553 L310.742331,452.230546 L308.118862,449.607848 C308.726011,448.747991 309.121974,447.72837 309.231268,446.624468 Z M303,440.990388 C305.766732,440.990388 308.009612,443.233268 308.009612,446 C308.009612,448.766732 305.766732,451.009612 303,451.009612 C300.233268,451.009612 297.990388,448.766732 297.990388,446 C297.990388,443.233268 300.233268,440.990388 303,440.990388 Z M313.989312,446.489309 C314.627949,446.84328 315.33715,447.086742 316.089764,447.196339 L316.373534,447.23107 L316.373704,450.999967 C315.23657,450.929833 314.150758,450.670024 313.147518,450.251789 C313.637145,449.086087 313.931137,447.818309 313.989312,446.489309 Z M321.296252,445.555793 L323.856748,448.116129 C323.890212,448.149593 323.926522,448.178478 323.966138,448.201245 C322.38238,449.733613 320.294603,450.748241 317.975604,450.972332 L317.626054,450.999982 L317.626466,447.23107 C319.041244,447.090542 320.317488,446.479135 321.296252,445.555793 Z M323.231268,441.624468 L323.262015,441.626201 L326.999982,441.626054 C326.875754,443.641043 326.155957,445.494893 325.014457,447.013738 L324.795526,447.294553 L324.742331,447.230546 L322.118862,444.607848 C322.726011,443.747991 323.121974,442.72837 323.231268,441.624468 Z M318.519435,436.225792 C320.543228,436.868266 322.009612,438.762887 322.009612,441 C322.009612,443.766732 319.766732,446.009612 317,446.009612 C315.852767,446.009612 314.795604,445.623978 313.951066,444.975267 C313.875442,444.137582 313.704358,443.328011 313.450156,442.556197 C315.855893,441.182311 317.692784,438.924822 318.519435,436.225792 Z M295.350782,439.528637 L297.95892,442.135352 L298.028056,442.192559 C297.395459,443.017392 296.963491,444.004181 296.805094,445.07998 L296.768732,445.375532 L296.737985,445.373799 L293.000033,445.373704 C293.13708,443.151658 293.998384,441.125582 295.350782,439.528637 Z M307.868535,442.061371 L310.533937,439.394904 C311.877923,440.92666 312.762227,442.871758 312.971394,445.014744 L312.999967,445.373704 L309.262015,445.373799 L309.231268,445.375532 C309.117114,444.222537 308.690226,443.161487 308.036612,442.278388 L307.868535,442.061371 L310.533937,439.394904 Z M312.296252,437.555793 L314.856748,440.116129 C314.890212,440.149593 314.926522,440.178478 314.966138,440.201245 C314.402749,440.746353 313.77558,441.225945 313.096911,441.62774 C312.590241,440.459664 311.887091,439.396885 311.029038,438.481 C311.489898,438.226848 311.915575,437.914914 312.296252,437.555793 Z M302.373704,436.000033 L302.373799,439.737985 C302.373799,439.748803 302.374073,439.759557 302.375532,439.768732 C301.041469,439.900813 299.830495,440.451566 298.879224,441.287404 L298.862318,441.268318 L298.862318,441.268318 L298.844503,441.249769 L296.218963,438.624128 C297.859731,437.114898 300.00541,436.146101 302.373704,436.000033 Z M303.626201,439.737985 L303.626054,436.000018 C305.811162,436.134735 307.806772,436.969828 309.391162,438.283575 L309.651382,438.506927 L306.987072,441.171104 C306.126456,440.459713 305.072473,439.973961 303.91574,439.804465 L303.624468,439.768732 L303.626201,439.737985 L303.626054,436.000018 Z M324.533937,434.394904 C325.877923,435.92666 326.762227,437.871758 326.971394,440.014744 L326.999967,440.373704 L323.262015,440.373799 L323.231268,440.375532 C323.117114,439.222537 322.690226,438.161487 322.036612,437.278388 L321.868535,437.061371 L324.533937,434.394904 Z M314.231268,433.624468 L314.262015,433.626201 L317.999982,433.626054 C317.875754,435.641043 317.155957,437.494893 316.014457,439.013738 L315.795526,439.294553 L315.742331,439.230546 L313.118862,436.607848 C313.726011,435.747991 314.121974,434.72837 314.231268,433.624468 Z M308,427.990388 C310.766732,427.990388 313.009612,430.233268 313.009612,433 C313.009612,435.031954 311.799851,436.781354 310.061291,437.567236 C308.248605,436.046099 305.93864,435.100354 303.410883,435.007532 C303.139882,434.393668 302.990388,433.714292 302.990388,433 C302.990388,430.233268 305.233268,427.990388 308,427.990388 Z M318.84543,431.151949 C320.551965,431.468054 322.106698,432.218521 323.391162,433.283575 L323.651382,433.506927 L320.987072,436.171104 C320.355848,435.64933 319.620601,435.24894 318.817085,435.005689 C318.937347,434.355808 319,433.685221 319,433 C319,432.37022 318.947075,431.752801 318.84543,431.151949 Z M301.768732,433.624468 C301.817314,434.115158 301.922537,434.589195 302.077772,435.03995 C300.787249,435.145293 299.560436,435.475034 298.435335,435.988864 C298.234716,435.350152 298.097326,434.682612 298.029526,433.994633 L298.000018,433.626054 L301.737985,433.626201 L301.768732,433.624468 Z M300.350782,426.528637 L302.95892,429.135352 L303.028056,429.192559 C302.395459,430.017392 301.963491,431.004181 301.805094,432.07998 L301.768732,432.375532 L301.737985,432.373799 L298.000033,432.373704 C298.13708,430.151658 298.998384,428.125582 300.350782,426.528637 Z M315.533937,426.394904 C316.877923,427.92666 317.762227,429.871758 317.971394,432.014744 L317.999967,432.373704 L314.262015,432.373799 L314.231268,432.375532 C314.117114,431.222537 313.690226,430.161487 313.036612,429.278388 L312.868535,429.061371 L315.533937,426.394904 Z M307.373704,423.000033 L307.373799,426.737985 C307.373799,426.748803 307.374073,426.759557 307.375532,426.768732 C306.041469,426.900813 304.830495,427.451566 303.879224,428.287404 L303.862318,428.268318 L303.844503,428.249769 L301.218963,425.624128 C302.859731,424.114898 305.00541,423.146101 307.373704,423.000033 Z M308.626054,423.000018 C310.811162,423.134735 312.806772,423.969828 314.391162,425.283575 L314.651382,425.506927 L311.987072,428.171104 C311.126456,427.459713 310.072473,426.973961 308.91574,426.804465 L308.624468,426.768732 L308.626201,426.737985 L308.626054,423.000018 Z" id="casino-chips">
</path>
            </g>
        </g>
    </g>
</svg>